<svg xmlns="http://www.w3.org/2000/svg" xmlns:xlink="http://www.w3.org/1999/xlink" width="3780" zoomAndPan="magnify" viewBox="0 0 2835 567.000005" height="756" preserveAspectRatio="xMidYMid meet" version="1.0"><defs><g/><clipPath id="4772a737db"><path d="M 504 93 L 598.960938 93 L 598.960938 276 L 504 276 Z M 504 93 " clip-rule="nonzero"/></clipPath><clipPath id="b55ebd1c2a"><path d="M 59.097656 93 L 154 93 L 154 276 L 59.097656 276 Z M 59.097656 93 " clip-rule="nonzero"/></clipPath><clipPath id="ba0306903f"><path d="M 504 303 L 598.960938 303 L 598.960938 486 L 504 486 Z M 504 303 " clip-rule="nonzero"/></clipPath><clipPath id="6462c73c11"><path d="M 59.097656 303 L 154 303 L 154 486 L 59.097656 486 Z M 59.097656 303 " clip-rule="nonzero"/></clipPath></defs><g clip-path="url(#4772a737db)"><path fill="#6caeee" d="M 539.476562 93.191406 L 563.429688 93.191406 C 564.582031 93.191406 565.730469 93.246094 566.875 93.359375 C 568.019531 93.472656 569.15625 93.640625 570.285156 93.867188 C 571.414062 94.089844 572.53125 94.371094 573.632812 94.703125 C 574.734375 95.039062 575.816406 95.425781 576.878906 95.867188 C 577.941406 96.308594 578.980469 96.796875 579.996094 97.339844 C 581.011719 97.882812 582 98.472656 582.957031 99.113281 C 583.914062 99.753906 584.835938 100.4375 585.726562 101.167969 C 586.617188 101.898438 587.46875 102.671875 588.28125 103.484375 C 589.09375 104.296875 589.867188 105.148438 590.597656 106.039062 C 591.328125 106.929688 592.011719 107.851562 592.652344 108.808594 C 593.292969 109.765625 593.882812 110.753906 594.425781 111.769531 C 594.96875 112.785156 595.457031 113.824219 595.898438 114.886719 C 596.339844 115.949219 596.726562 117.03125 597.0625 118.132812 C 597.394531 119.234375 597.675781 120.351562 597.898438 121.480469 C 598.125 122.609375 598.292969 123.746094 598.40625 124.890625 C 598.519531 126.035156 598.574219 127.183594 598.574219 128.335938 L 598.574219 240.085938 C 598.574219 241.238281 598.519531 242.382812 598.40625 243.53125 C 598.292969 244.675781 598.125 245.8125 597.898438 246.941406 C 597.675781 248.070312 597.394531 249.1875 597.0625 250.289062 C 596.726562 251.386719 596.339844 252.472656 595.898438 253.535156 C 595.457031 254.597656 594.96875 255.636719 594.425781 256.652344 C 593.882812 257.667969 593.292969 258.652344 592.652344 259.609375 C 592.011719 260.566406 591.328125 261.492188 590.597656 262.378906 C 589.867188 263.269531 589.09375 264.121094 588.28125 264.9375 C 587.46875 265.75 586.617188 266.523438 585.726562 267.253906 C 584.835938 267.980469 583.914062 268.667969 582.957031 269.304688 C 582 269.945312 581.011719 270.535156 579.996094 271.078125 C 578.980469 271.621094 577.941406 272.113281 576.878906 272.554688 C 575.816406 272.996094 574.734375 273.382812 573.632812 273.714844 C 572.53125 274.050781 571.414062 274.328125 570.285156 274.554688 C 569.15625 274.777344 568.019531 274.949219 566.875 275.058594 C 565.730469 275.171875 564.582031 275.230469 563.429688 275.230469 L 539.476562 275.230469 C 538.324219 275.230469 537.175781 275.171875 536.03125 275.058594 C 534.882812 274.949219 533.746094 274.777344 532.617188 274.554688 C 531.488281 274.328125 530.375 274.050781 529.273438 273.714844 C 528.171875 273.382812 527.089844 272.996094 526.027344 272.554688 C 524.960938 272.113281 523.921875 271.621094 522.90625 271.078125 C 521.894531 270.535156 520.90625 269.945312 519.949219 269.304688 C 518.992188 268.667969 518.070312 267.980469 517.179688 267.253906 C 516.289062 266.523438 515.4375 265.75 514.625 264.9375 C 513.808594 264.121094 513.039062 263.269531 512.308594 262.378906 C 511.578125 261.492188 510.894531 260.566406 510.253906 259.609375 C 509.613281 258.652344 509.023438 257.667969 508.480469 256.652344 C 507.9375 255.636719 507.445312 254.597656 507.003906 253.535156 C 506.566406 252.472656 506.179688 251.386719 505.84375 250.289062 C 505.507812 249.1875 505.230469 248.070312 505.003906 246.941406 C 504.78125 245.8125 504.613281 244.675781 504.5 243.53125 C 504.386719 242.382812 504.332031 241.238281 504.332031 240.085938 L 504.332031 128.335938 C 504.332031 127.183594 504.386719 126.035156 504.5 124.890625 C 504.613281 123.746094 504.78125 122.609375 505.003906 121.480469 C 505.230469 120.351562 505.507812 119.234375 505.84375 118.132812 C 506.179688 117.03125 506.566406 115.949219 507.003906 114.886719 C 507.445312 113.824219 507.9375 112.785156 508.480469 111.769531 C 509.023438 110.753906 509.613281 109.765625 510.253906 108.808594 C 510.894531 107.851562 511.578125 106.929688 512.308594 106.039062 C 513.039062 105.148438 513.808594 104.296875 514.625 103.484375 C 515.4375 102.671875 516.289062 101.898438 517.179688 101.167969 C 518.070312 100.4375 518.992188 99.753906 519.949219 99.113281 C 520.90625 98.472656 521.894531 97.882812 522.90625 97.339844 C 523.921875 96.796875 524.960938 96.308594 526.027344 95.867188 C 527.089844 95.425781 528.171875 95.039062 529.273438 94.703125 C 530.375 94.371094 531.488281 94.089844 532.617188 93.867188 C 533.746094 93.640625 534.882812 93.472656 536.03125 93.359375 C 537.175781 93.246094 538.324219 93.191406 539.476562 93.191406 Z M 539.476562 93.191406 " fill-opacity="1" fill-rule="nonzero"/></g><g clip-path="url(#b55ebd1c2a)"><path fill="#6caeee" d="M 94.449219 93.191406 L 118.402344 93.191406 C 119.554688 93.191406 120.703125 93.246094 121.847656 93.359375 C 122.992188 93.472656 124.132812 93.640625 125.261719 93.867188 C 126.390625 94.089844 127.503906 94.371094 128.605469 94.703125 C 129.707031 95.039062 130.789062 95.425781 131.851562 95.867188 C 132.917969 96.308594 133.957031 96.796875 134.972656 97.339844 C 135.984375 97.882812 136.972656 98.472656 137.929688 99.113281 C 138.886719 99.753906 139.808594 100.4375 140.699219 101.167969 C 141.589844 101.898438 142.441406 102.671875 143.253906 103.484375 C 144.070312 104.296875 144.839844 105.148438 145.570312 106.039062 C 146.300781 106.929688 146.984375 107.851562 147.625 108.808594 C 148.265625 109.765625 148.855469 110.753906 149.398438 111.769531 C 149.941406 112.785156 150.433594 113.824219 150.871094 114.886719 C 151.3125 115.949219 151.699219 117.03125 152.035156 118.132812 C 152.367188 119.234375 152.648438 120.351562 152.871094 121.480469 C 153.097656 122.609375 153.265625 123.746094 153.378906 124.890625 C 153.492188 126.035156 153.546875 127.183594 153.546875 128.335938 L 153.546875 240.085938 C 153.546875 241.238281 153.492188 242.382812 153.378906 243.53125 C 153.265625 244.675781 153.097656 245.8125 152.871094 246.941406 C 152.648438 248.070312 152.367188 249.1875 152.035156 250.289062 C 151.699219 251.386719 151.3125 252.472656 150.871094 253.535156 C 150.433594 254.597656 149.941406 255.636719 149.398438 256.652344 C 148.855469 257.667969 148.265625 258.652344 147.625 259.609375 C 146.984375 260.566406 146.300781 261.492188 145.570312 262.378906 C 144.839844 263.269531 144.070312 264.121094 143.253906 264.9375 C 142.441406 265.75 141.589844 266.523438 140.699219 267.253906 C 139.808594 267.980469 138.886719 268.667969 137.929688 269.304688 C 136.972656 269.945312 135.984375 270.535156 134.972656 271.078125 C 133.957031 271.621094 132.917969 272.113281 131.851562 272.554688 C 130.789062 272.996094 129.707031 273.382812 128.605469 273.714844 C 127.503906 274.050781 126.390625 274.328125 125.261719 274.554688 C 124.132812 274.777344 122.992188 274.949219 121.847656 275.058594 C 120.703125 275.171875 119.554688 275.230469 118.402344 275.230469 L 94.449219 275.230469 C 93.296875 275.230469 92.148438 275.171875 91.003906 275.058594 C 89.859375 274.949219 88.71875 274.777344 87.589844 274.554688 C 86.460938 274.328125 85.347656 274.050781 84.246094 273.714844 C 83.144531 273.382812 82.0625 272.996094 81 272.554688 C 79.9375 272.113281 78.894531 271.621094 77.882812 271.078125 C 76.867188 270.535156 75.878906 269.945312 74.921875 269.304688 C 73.964844 268.667969 73.042969 267.980469 72.152344 267.253906 C 71.261719 266.523438 70.410156 265.75 69.597656 264.9375 C 68.785156 264.121094 68.011719 263.269531 67.28125 262.378906 C 66.550781 261.492188 65.867188 260.566406 65.226562 259.609375 C 64.585938 258.652344 63.996094 257.667969 63.453125 256.652344 C 62.910156 255.636719 62.417969 254.597656 61.980469 253.535156 C 61.539062 252.472656 61.152344 251.386719 60.816406 250.289062 C 60.484375 249.1875 60.203125 248.070312 59.980469 246.941406 C 59.753906 245.8125 59.585938 244.675781 59.472656 243.53125 C 59.359375 242.382812 59.304688 241.238281 59.304688 240.085938 L 59.304688 128.335938 C 59.304688 127.183594 59.359375 126.035156 59.472656 124.890625 C 59.585938 123.746094 59.753906 122.609375 59.980469 121.480469 C 60.203125 120.351562 60.484375 119.234375 60.816406 118.132812 C 61.152344 117.03125 61.539062 115.949219 61.980469 114.886719 C 62.417969 113.824219 62.910156 112.785156 63.453125 111.769531 C 63.996094 110.753906 64.585938 109.765625 65.226562 108.808594 C 65.867188 107.851562 66.550781 106.929688 67.28125 106.039062 C 68.011719 105.148438 68.785156 104.296875 69.597656 103.484375 C 70.410156 102.671875 71.261719 101.898438 72.152344 101.167969 C 73.042969 100.4375 73.964844 99.753906 74.921875 99.113281 C 75.878906 98.472656 76.867188 97.882812 77.882812 97.339844 C 78.894531 96.796875 79.9375 96.308594 81 95.867188 C 82.0625 95.425781 83.144531 95.039062 84.246094 94.703125 C 85.347656 94.371094 86.460938 94.089844 87.589844 93.867188 C 88.71875 93.640625 89.859375 93.472656 91.003906 93.359375 C 92.148438 93.246094 93.296875 93.191406 94.449219 93.191406 Z M 94.449219 93.191406 " fill-opacity="1" fill-rule="nonzero"/></g><g clip-path="url(#ba0306903f)"><path fill="#6caeee" d="M 539.476562 303.792969 L 563.429688 303.792969 C 564.582031 303.792969 565.730469 303.847656 566.875 303.960938 C 568.019531 304.074219 569.15625 304.242188 570.285156 304.46875 C 571.414062 304.691406 572.53125 304.972656 573.632812 305.304688 C 574.734375 305.640625 575.816406 306.027344 576.878906 306.46875 C 577.941406 306.90625 578.980469 307.398438 579.996094 307.941406 C 581.011719 308.484375 582 309.074219 582.957031 309.714844 C 583.914062 310.355469 584.835938 311.039062 585.726562 311.769531 C 586.617188 312.5 587.46875 313.273438 588.28125 314.085938 C 589.09375 314.898438 589.867188 315.75 590.597656 316.640625 C 591.328125 317.53125 592.011719 318.453125 592.652344 319.410156 C 593.292969 320.367188 593.882812 321.355469 594.425781 322.371094 C 594.96875 323.382812 595.457031 324.421875 595.898438 325.488281 C 596.339844 326.550781 596.726562 327.632812 597.0625 328.734375 C 597.394531 329.835938 597.675781 330.949219 597.898438 332.078125 C 598.125 333.207031 598.292969 334.347656 598.40625 335.492188 C 598.519531 336.636719 598.574219 337.785156 598.574219 338.9375 L 598.574219 450.6875 C 598.574219 451.835938 598.519531 452.984375 598.40625 454.132812 C 598.292969 455.277344 598.125 456.414062 597.898438 457.542969 C 597.675781 458.671875 597.394531 459.785156 597.0625 460.886719 C 596.726562 461.988281 596.339844 463.070312 595.898438 464.136719 C 595.457031 465.199219 594.96875 466.238281 594.425781 467.253906 C 593.882812 468.269531 593.292969 469.253906 592.652344 470.210938 C 592.011719 471.167969 591.328125 472.09375 590.597656 472.980469 C 589.867188 473.871094 589.09375 474.722656 588.28125 475.535156 C 587.46875 476.351562 586.617188 477.121094 585.726562 477.851562 C 584.835938 478.582031 583.914062 479.269531 582.957031 479.90625 C 582 480.546875 581.011719 481.136719 579.996094 481.679688 C 578.980469 482.222656 577.941406 482.714844 576.878906 483.15625 C 575.816406 483.597656 574.734375 483.984375 573.632812 484.316406 C 572.53125 484.652344 571.414062 484.929688 570.285156 485.15625 C 569.15625 485.378906 568.019531 485.546875 566.875 485.660156 C 565.730469 485.773438 564.582031 485.832031 563.429688 485.832031 L 539.476562 485.832031 C 538.324219 485.832031 537.175781 485.773438 536.03125 485.660156 C 534.882812 485.546875 533.746094 485.378906 532.617188 485.15625 C 531.488281 484.929688 530.375 484.652344 529.273438 484.316406 C 528.171875 483.984375 527.089844 483.597656 526.027344 483.15625 C 524.960938 482.714844 523.921875 482.222656 522.90625 481.679688 C 521.894531 481.136719 520.90625 480.546875 519.949219 479.90625 C 518.992188 479.269531 518.070312 478.582031 517.179688 477.851562 C 516.289062 477.121094 515.4375 476.351562 514.625 475.535156 C 513.808594 474.722656 513.039062 473.871094 512.308594 472.980469 C 511.578125 472.09375 510.894531 471.167969 510.253906 470.210938 C 509.613281 469.253906 509.023438 468.269531 508.480469 467.253906 C 507.9375 466.238281 507.445312 465.199219 507.003906 464.136719 C 506.566406 463.070312 506.179688 461.988281 505.84375 460.886719 C 505.507812 459.785156 505.230469 458.671875 505.003906 457.542969 C 504.78125 456.414062 504.613281 455.277344 504.5 454.132812 C 504.386719 452.984375 504.332031 451.835938 504.332031 450.6875 L 504.332031 338.9375 C 504.332031 337.785156 504.386719 336.636719 504.5 335.492188 C 504.613281 334.347656 504.78125 333.207031 505.003906 332.078125 C 505.230469 330.949219 505.507812 329.835938 505.84375 328.734375 C 506.179688 327.632812 506.566406 326.550781 507.003906 325.488281 C 507.445312 324.421875 507.9375 323.382812 508.480469 322.371094 C 509.023438 321.355469 509.613281 320.367188 510.253906 319.410156 C 510.894531 318.453125 511.578125 317.53125 512.308594 316.640625 C 513.039062 315.75 513.808594 314.898438 514.625 314.085938 C 515.4375 313.273438 516.289062 312.5 517.179688 311.769531 C 518.070312 311.039062 518.992188 310.355469 519.949219 309.714844 C 520.90625 309.074219 521.894531 308.484375 522.90625 307.941406 C 523.921875 307.398438 524.960938 306.90625 526.027344 306.46875 C 527.089844 306.027344 528.171875 305.640625 529.273438 305.304688 C 530.375 304.972656 531.488281 304.691406 532.617188 304.46875 C 533.746094 304.242188 534.882812 304.074219 536.03125 303.960938 C 537.175781 303.847656 538.324219 303.792969 539.476562 303.792969 Z M 539.476562 303.792969 " fill-opacity="1" fill-rule="nonzero"/></g><g clip-path="url(#6462c73c11)"><path fill="#6caeee" d="M 94.449219 303.792969 L 118.402344 303.792969 C 119.554688 303.792969 120.703125 303.847656 121.847656 303.960938 C 122.992188 304.074219 124.132812 304.242188 125.261719 304.46875 C 126.390625 304.691406 127.503906 304.972656 128.605469 305.304688 C 129.707031 305.640625 130.789062 306.027344 131.851562 306.46875 C 132.917969 306.90625 133.957031 307.398438 134.972656 307.941406 C 135.984375 308.484375 136.972656 309.074219 137.929688 309.714844 C 138.886719 310.355469 139.808594 311.039062 140.699219 311.769531 C 141.589844 312.5 142.441406 313.273438 143.253906 314.085938 C 144.070312 314.898438 144.839844 315.75 145.570312 316.640625 C 146.300781 317.53125 146.984375 318.453125 147.625 319.410156 C 148.265625 320.367188 148.855469 321.355469 149.398438 322.371094 C 149.941406 323.382812 150.433594 324.421875 150.871094 325.488281 C 151.3125 326.550781 151.699219 327.632812 152.035156 328.734375 C 152.367188 329.835938 152.648438 330.949219 152.871094 332.078125 C 153.097656 333.207031 153.265625 334.347656 153.378906 335.492188 C 153.492188 336.636719 153.546875 337.785156 153.546875 338.9375 L 153.546875 450.6875 C 153.546875 451.835938 153.492188 452.984375 153.378906 454.132812 C 153.265625 455.277344 153.097656 456.414062 152.871094 457.542969 C 152.648438 458.671875 152.367188 459.785156 152.035156 460.886719 C 151.699219 461.988281 151.3125 463.070312 150.871094 464.136719 C 150.433594 465.199219 149.941406 466.238281 149.398438 467.253906 C 148.855469 468.269531 148.265625 469.253906 147.625 470.210938 C 146.984375 471.167969 146.300781 472.09375 145.570312 472.980469 C 144.839844 473.871094 144.070312 474.722656 143.253906 475.535156 C 142.441406 476.351562 141.589844 477.121094 140.699219 477.851562 C 139.808594 478.582031 138.886719 479.269531 137.929688 479.90625 C 136.972656 480.546875 135.984375 481.136719 134.972656 481.679688 C 133.957031 482.222656 132.917969 482.714844 131.851562 483.15625 C 130.789062 483.597656 129.707031 483.984375 128.605469 484.316406 C 127.503906 484.652344 126.390625 484.929688 125.261719 485.15625 C 124.132812 485.378906 122.992188 485.546875 121.847656 485.660156 C 120.703125 485.773438 119.554688 485.832031 118.402344 485.832031 L 94.449219 485.832031 C 93.296875 485.832031 92.148438 485.773438 91.003906 485.660156 C 89.859375 485.546875 88.71875 485.378906 87.589844 485.15625 C 86.460938 484.929688 85.347656 484.652344 84.246094 484.316406 C 83.144531 483.984375 82.0625 483.597656 81 483.15625 C 79.9375 482.714844 78.894531 482.222656 77.882812 481.679688 C 76.867188 481.136719 75.878906 480.546875 74.921875 479.90625 C 73.964844 479.269531 73.042969 478.582031 72.152344 477.851562 C 71.261719 477.121094 70.410156 476.351562 69.597656 475.535156 C 68.785156 474.722656 68.011719 473.871094 67.28125 472.980469 C 66.550781 472.09375 65.867188 471.167969 65.226562 470.210938 C 64.585938 469.253906 63.996094 468.269531 63.453125 467.253906 C 62.910156 466.238281 62.417969 465.199219 61.980469 464.136719 C 61.539062 463.070312 61.152344 461.988281 60.816406 460.886719 C 60.484375 459.785156 60.203125 458.671875 59.980469 457.542969 C 59.753906 456.414062 59.585938 455.277344 59.472656 454.132812 C 59.359375 452.984375 59.304688 451.835938 59.304688 450.6875 L 59.304688 338.9375 C 59.304688 337.785156 59.359375 336.636719 59.472656 335.492188 C 59.585938 334.347656 59.753906 333.207031 59.980469 332.078125 C 60.203125 330.949219 60.484375 329.835938 60.816406 328.734375 C 61.152344 327.632812 61.539062 326.550781 61.980469 325.488281 C 62.417969 324.421875 62.910156 323.382812 63.453125 322.371094 C 63.996094 321.355469 64.585938 320.367188 65.226562 319.410156 C 65.867188 318.453125 66.550781 317.53125 67.28125 316.640625 C 68.011719 315.75 68.785156 314.898438 69.597656 314.085938 C 70.410156 313.273438 71.261719 312.5 72.152344 311.769531 C 73.042969 311.039062 73.964844 310.355469 74.921875 309.714844 C 75.878906 309.074219 76.867188 308.484375 77.882812 307.941406 C 78.894531 307.398438 79.9375 306.90625 81 306.46875 C 82.0625 306.027344 83.144531 305.640625 84.246094 305.304688 C 85.347656 304.972656 86.460938 304.691406 87.589844 304.46875 C 88.71875 304.242188 89.859375 304.074219 91.003906 303.960938 C 92.148438 303.847656 93.296875 303.792969 94.449219 303.792969 Z M 94.449219 303.792969 " fill-opacity="1" fill-rule="nonzero"/></g><path fill="#1769c3" d="M 279.644531 0.261719 L 391.394531 0.261719 C 392.546875 0.261719 393.695312 0.320312 394.839844 0.433594 C 395.984375 0.546875 397.125 0.714844 398.25 0.9375 C 399.378906 1.164062 400.496094 1.441406 401.597656 1.777344 C 402.699219 2.109375 403.78125 2.496094 404.84375 2.9375 C 405.90625 3.378906 406.949219 3.871094 407.960938 4.414062 C 408.976562 4.957031 409.964844 5.546875 410.921875 6.1875 C 411.878906 6.824219 412.800781 7.511719 413.691406 8.242188 C 414.582031 8.972656 415.433594 9.742188 416.246094 10.558594 C 417.058594 11.371094 417.832031 12.222656 418.5625 13.113281 C 419.292969 14 419.976562 14.925781 420.617188 15.882812 C 421.257812 16.839844 421.847656 17.824219 422.390625 18.839844 C 422.933594 19.855469 423.425781 20.894531 423.863281 21.957031 C 424.304688 23.023438 424.691406 24.105469 425.027344 25.207031 C 425.359375 26.308594 425.640625 27.421875 425.863281 28.550781 C 426.089844 29.679688 426.257812 30.816406 426.371094 31.960938 C 426.484375 33.109375 426.539062 34.257812 426.539062 35.40625 L 426.539062 59.363281 C 426.539062 60.515625 426.484375 61.664062 426.371094 62.808594 C 426.257812 63.953125 426.089844 65.089844 425.863281 66.21875 C 425.640625 67.347656 425.359375 68.464844 425.027344 69.566406 C 424.691406 70.667969 424.304688 71.75 423.863281 72.8125 C 423.425781 73.875 422.933594 74.914062 422.390625 75.929688 C 421.847656 76.945312 421.257812 77.929688 420.617188 78.886719 C 419.976562 79.84375 419.292969 80.769531 418.5625 81.660156 C 417.832031 82.546875 417.058594 83.398438 416.246094 84.214844 C 415.433594 85.027344 414.582031 85.800781 413.691406 86.53125 C 412.800781 87.261719 411.878906 87.945312 410.921875 88.585938 C 409.964844 89.222656 408.976562 89.816406 407.960938 90.359375 C 406.949219 90.898438 405.90625 91.390625 404.84375 91.832031 C 403.78125 92.273438 402.699219 92.660156 401.597656 92.992188 C 400.496094 93.328125 399.378906 93.609375 398.25 93.832031 C 397.125 94.054688 395.984375 94.226562 394.839844 94.339844 C 393.695312 94.449219 392.546875 94.507812 391.394531 94.507812 L 279.644531 94.507812 C 278.496094 94.507812 277.347656 94.449219 276.199219 94.339844 C 275.054688 94.226562 273.917969 94.054688 272.789062 93.832031 C 271.660156 93.609375 270.546875 93.328125 269.445312 92.992188 C 268.34375 92.660156 267.257812 92.273438 266.195312 91.832031 C 265.132812 91.390625 264.09375 90.898438 263.078125 90.359375 C 262.0625 89.816406 261.078125 89.222656 260.121094 88.585938 C 259.164062 87.945312 258.238281 87.261719 257.351562 86.53125 C 256.460938 85.800781 255.609375 85.027344 254.792969 84.214844 C 253.980469 83.398438 253.207031 82.546875 252.480469 81.660156 C 251.75 80.769531 251.0625 79.84375 250.425781 78.886719 C 249.785156 77.929688 249.195312 76.945312 248.652344 75.929688 C 248.109375 74.914062 247.617188 73.875 247.175781 72.8125 C 246.734375 71.75 246.347656 70.667969 246.015625 69.566406 C 245.679688 68.464844 245.402344 67.347656 245.175781 66.21875 C 244.953125 65.089844 244.785156 63.953125 244.671875 62.808594 C 244.558594 61.664062 244.5 60.515625 244.5 59.363281 L 244.5 35.40625 C 244.5 34.257812 244.558594 33.109375 244.671875 31.960938 C 244.785156 30.816406 244.953125 29.679688 245.175781 28.550781 C 245.402344 27.421875 245.679688 26.308594 246.015625 25.207031 C 246.347656 24.105469 246.734375 23.023438 247.175781 21.957031 C 247.617188 20.894531 248.109375 19.855469 248.652344 18.839844 C 249.195312 17.824219 249.785156 16.839844 250.425781 15.882812 C 251.0625 14.925781 251.75 14 252.480469 13.113281 C 253.207031 12.222656 253.980469 11.371094 254.792969 10.558594 C 255.609375 9.742188 256.460938 8.972656 257.351562 8.242188 C 258.238281 7.511719 259.164062 6.824219 260.121094 6.1875 C 261.078125 5.546875 262.0625 4.957031 263.078125 4.414062 C 264.09375 3.871094 265.132812 3.378906 266.195312 2.9375 C 267.257812 2.496094 268.34375 2.109375 269.445312 1.777344 C 270.546875 1.441406 271.660156 1.164062 272.789062 0.9375 C 273.917969 0.714844 275.054688 0.546875 276.199219 0.433594 C 277.347656 0.320312 278.496094 0.261719 279.644531 0.261719 Z M 279.644531 0.261719 " fill-opacity="1" fill-rule="nonzero"/><path fill="#6caeee" d="M 371.785156 471.613281 L 483.535156 471.613281 C 484.683594 471.613281 485.832031 471.671875 486.976562 471.785156 C 488.125 471.898438 489.261719 472.066406 490.390625 472.289062 C 491.519531 472.515625 492.632812 472.792969 493.734375 473.128906 C 494.835938 473.460938 495.917969 473.851562 496.984375 474.289062 C 498.046875 474.730469 499.085938 475.222656 500.101562 475.765625 C 501.117188 476.308594 502.101562 476.898438 503.058594 477.539062 C 504.015625 478.175781 504.9375 478.863281 505.828125 479.59375 C 506.71875 480.324219 507.570312 481.09375 508.382812 481.910156 C 509.199219 482.722656 509.96875 483.574219 510.699219 484.464844 C 511.429688 485.355469 512.117188 486.277344 512.753906 487.234375 C 513.394531 488.191406 513.984375 489.175781 514.527344 490.191406 C 515.070312 491.207031 515.5625 492.246094 516.003906 493.308594 C 516.441406 494.375 516.832031 495.457031 517.164062 496.558594 C 517.5 497.660156 517.777344 498.773438 518.003906 499.902344 C 518.226562 501.03125 518.394531 502.167969 518.507812 503.3125 C 518.621094 504.460938 518.679688 505.609375 518.679688 506.757812 L 518.679688 530.714844 C 518.679688 531.867188 518.621094 533.015625 518.507812 534.160156 C 518.394531 535.304688 518.226562 536.441406 518.003906 537.570312 C 517.777344 538.699219 517.5 539.816406 517.164062 540.917969 C 516.832031 542.019531 516.441406 543.101562 516.003906 544.164062 C 515.5625 545.226562 515.070312 546.265625 514.527344 547.28125 C 513.984375 548.296875 513.394531 549.28125 512.753906 550.238281 C 512.117188 551.195312 511.429688 552.121094 510.699219 553.011719 C 509.96875 553.898438 509.199219 554.75 508.382812 555.566406 C 507.570312 556.378906 506.71875 557.152344 505.828125 557.882812 C 504.9375 558.613281 504.015625 559.296875 503.058594 559.9375 C 502.101562 560.574219 501.117188 561.167969 500.101562 561.710938 C 499.085938 562.25 498.046875 562.742188 496.984375 563.183594 C 495.917969 563.625 494.835938 564.011719 493.734375 564.347656 C 492.632812 564.679688 491.519531 564.960938 490.390625 565.183594 C 489.261719 565.410156 488.125 565.578125 486.976562 565.691406 C 485.832031 565.800781 484.683594 565.859375 483.535156 565.859375 L 371.785156 565.859375 C 370.632812 565.859375 369.484375 565.800781 368.339844 565.691406 C 367.191406 565.578125 366.054688 565.410156 364.925781 565.183594 C 363.796875 564.960938 362.683594 564.679688 361.582031 564.347656 C 360.480469 564.011719 359.398438 563.625 358.335938 563.183594 C 357.269531 562.742188 356.230469 562.25 355.214844 561.710938 C 354.203125 561.167969 353.214844 560.574219 352.257812 559.9375 C 351.300781 559.296875 350.378906 558.613281 349.488281 557.882812 C 348.597656 557.152344 347.746094 556.378906 346.933594 555.566406 C 346.117188 554.75 345.347656 553.898438 344.617188 553.011719 C 343.886719 552.121094 343.203125 551.195312 342.5625 550.238281 C 341.921875 549.28125 341.332031 548.296875 340.789062 547.28125 C 340.246094 546.265625 339.753906 545.226562 339.316406 544.164062 C 338.875 543.101562 338.488281 542.019531 338.152344 540.917969 C 337.820312 539.816406 337.539062 538.699219 337.316406 537.570312 C 337.089844 536.441406 336.921875 535.304688 336.808594 534.160156 C 336.695312 533.015625 336.640625 531.867188 336.640625 530.714844 L 336.640625 506.757812 C 336.640625 505.609375 336.695312 504.460938 336.808594 503.3125 C 336.921875 502.167969 337.089844 501.03125 337.316406 499.902344 C 337.539062 498.773438 337.820312 497.660156 338.152344 496.558594 C 338.488281 495.457031 338.875 494.375 339.316406 493.308594 C 339.753906 492.246094 340.246094 491.207031 340.789062 490.191406 C 341.332031 489.175781 341.921875 488.191406 342.5625 487.234375 C 343.203125 486.277344 343.886719 485.355469 344.617188 484.464844 C 345.347656 483.574219 346.117188 482.722656 346.933594 481.910156 C 347.746094 481.09375 348.597656 480.324219 349.488281 479.59375 C 350.378906 478.863281 351.300781 478.175781 352.257812 477.539062 C 353.214844 476.898438 354.203125 476.308594 355.214844 475.765625 C 356.230469 475.222656 357.269531 474.730469 358.335938 474.289062 C 359.398438 473.851562 360.480469 473.460938 361.582031 473.128906 C 362.683594 472.792969 363.796875 472.515625 364.925781 472.289062 C 366.054688 472.066406 367.191406 471.898438 368.339844 471.785156 C 369.484375 471.671875 370.632812 471.613281 371.785156 471.613281 Z M 371.785156 471.613281 " fill-opacity="1" fill-rule="nonzero"/><path fill="#6caeee" d="M 174.34375 471.613281 L 286.09375 471.613281 C 287.246094 471.613281 288.394531 471.671875 289.539062 471.785156 C 290.683594 471.898438 291.824219 472.066406 292.953125 472.289062 C 294.082031 472.515625 295.195312 472.792969 296.296875 473.128906 C 297.398438 473.460938 298.480469 473.851562 299.542969 474.289062 C 300.609375 474.730469 301.648438 475.222656 302.660156 475.765625 C 303.675781 476.308594 304.664062 476.898438 305.621094 477.539062 C 306.578125 478.175781 307.5 478.863281 308.390625 479.59375 C 309.28125 480.324219 310.132812 481.09375 310.945312 481.910156 C 311.757812 482.722656 312.53125 483.574219 313.261719 484.464844 C 313.992188 485.355469 314.675781 486.277344 315.316406 487.234375 C 315.957031 488.191406 316.546875 489.175781 317.089844 490.191406 C 317.632812 491.207031 318.125 492.246094 318.5625 493.308594 C 319.003906 494.375 319.390625 495.457031 319.726562 496.558594 C 320.058594 497.660156 320.339844 498.773438 320.5625 499.902344 C 320.789062 501.03125 320.957031 502.167969 321.070312 503.3125 C 321.183594 504.460938 321.238281 505.609375 321.238281 506.757812 L 321.238281 530.714844 C 321.238281 531.867188 321.183594 533.015625 321.070312 534.160156 C 320.957031 535.304688 320.789062 536.441406 320.5625 537.570312 C 320.339844 538.699219 320.058594 539.816406 319.726562 540.917969 C 319.390625 542.019531 319.003906 543.101562 318.5625 544.164062 C 318.125 545.226562 317.632812 546.265625 317.089844 547.28125 C 316.546875 548.296875 315.957031 549.28125 315.316406 550.238281 C 314.675781 551.195312 313.992188 552.121094 313.261719 553.011719 C 312.53125 553.898438 311.757812 554.75 310.945312 555.566406 C 310.132812 556.378906 309.28125 557.152344 308.390625 557.882812 C 307.5 558.613281 306.578125 559.296875 305.621094 559.9375 C 304.664062 560.574219 303.675781 561.167969 302.660156 561.710938 C 301.648438 562.25 300.609375 562.742188 299.542969 563.183594 C 298.480469 563.625 297.398438 564.011719 296.296875 564.347656 C 295.195312 564.679688 294.082031 564.960938 292.953125 565.183594 C 291.824219 565.410156 290.683594 565.578125 289.539062 565.691406 C 288.394531 565.800781 287.246094 565.859375 286.09375 565.859375 L 174.34375 565.859375 C 173.195312 565.859375 172.046875 565.800781 170.898438 565.691406 C 169.753906 565.578125 168.617188 565.410156 167.488281 565.183594 C 166.359375 564.960938 165.246094 564.679688 164.144531 564.347656 C 163.042969 564.011719 161.960938 563.625 160.894531 563.183594 C 159.832031 562.742188 158.792969 562.25 157.777344 561.710938 C 156.761719 561.167969 155.777344 560.574219 154.820312 559.9375 C 153.863281 559.296875 152.9375 558.613281 152.050781 557.882812 C 151.160156 557.152344 150.308594 556.378906 149.496094 555.566406 C 148.679688 554.75 147.910156 553.898438 147.179688 553.011719 C 146.449219 552.121094 145.761719 551.195312 145.125 550.238281 C 144.484375 549.28125 143.894531 548.296875 143.351562 547.28125 C 142.808594 546.265625 142.316406 545.226562 141.875 544.164062 C 141.433594 543.101562 141.046875 542.019531 140.714844 540.917969 C 140.378906 539.816406 140.101562 538.699219 139.875 537.570312 C 139.652344 536.441406 139.484375 535.304688 139.371094 534.160156 C 139.257812 533.015625 139.199219 531.867188 139.199219 530.714844 L 139.199219 506.757812 C 139.199219 505.609375 139.257812 504.460938 139.371094 503.3125 C 139.484375 502.167969 139.652344 501.03125 139.875 499.902344 C 140.101562 498.773438 140.378906 497.660156 140.714844 496.558594 C 141.046875 495.457031 141.433594 494.375 141.875 493.308594 C 142.316406 492.246094 142.808594 491.207031 143.351562 490.191406 C 143.894531 489.175781 144.484375 488.191406 145.125 487.234375 C 145.761719 486.277344 146.449219 485.355469 147.179688 484.464844 C 147.910156 483.574219 148.679688 482.722656 149.496094 481.910156 C 150.308594 481.09375 151.160156 480.324219 152.050781 479.59375 C 152.9375 478.863281 153.863281 478.175781 154.820312 477.539062 C 155.777344 476.898438 156.761719 476.308594 157.777344 475.765625 C 158.792969 475.222656 159.832031 474.730469 160.894531 474.289062 C 161.960938 473.851562 163.042969 473.460938 164.144531 473.128906 C 165.246094 472.792969 166.359375 472.515625 167.488281 472.289062 C 168.617188 472.066406 169.753906 471.898438 170.898438 471.785156 C 172.046875 471.671875 173.195312 471.613281 174.34375 471.613281 Z M 174.34375 471.613281 " fill-opacity="1" fill-rule="nonzero"/><path fill="#a2c9ee" d="M 186.324219 455.292969 L 473.792969 455.292969 C 474.65625 455.292969 475.511719 455.210938 476.359375 455.039062 C 477.207031 454.871094 478.03125 454.621094 478.832031 454.292969 C 479.628906 453.960938 480.386719 453.554688 481.105469 453.074219 C 481.824219 452.59375 482.488281 452.050781 483.101562 451.4375 C 483.710938 450.828125 484.257812 450.160156 484.738281 449.445312 C 485.21875 448.726562 485.625 447.964844 485.953125 447.167969 C 486.285156 446.371094 486.535156 445.546875 486.703125 444.699219 C 486.871094 443.851562 486.957031 442.996094 486.957031 442.128906 L 486.957031 126.230469 C 486.957031 125.363281 486.871094 124.507812 486.703125 123.660156 C 486.535156 122.8125 486.285156 121.992188 485.953125 121.191406 C 485.625 120.394531 485.21875 119.636719 484.738281 118.917969 C 484.257812 118.199219 483.710938 117.53125 483.101562 116.921875 C 482.488281 116.3125 481.824219 115.765625 481.105469 115.285156 C 480.386719 114.804688 479.628906 114.398438 478.832031 114.070312 C 478.03125 113.738281 477.207031 113.488281 476.359375 113.320312 C 475.511719 113.152344 474.65625 113.066406 473.792969 113.066406 L 380.339844 113.066406 C 379.476562 113.066406 378.617188 113.152344 377.769531 113.320312 C 376.921875 113.488281 376.101562 113.738281 375.300781 114.070312 C 374.503906 114.398438 373.746094 114.804688 373.027344 115.285156 C 372.308594 115.765625 371.644531 116.3125 371.03125 116.921875 C 370.421875 117.53125 369.875 118.199219 369.394531 118.917969 C 368.914062 119.636719 368.507812 120.394531 368.179688 121.191406 C 367.847656 121.992188 367.597656 122.8125 367.429688 123.660156 C 367.261719 124.507812 367.175781 125.363281 367.175781 126.230469 L 367.175781 341.964844 L 288.199219 341.964844 L 288.199219 126.230469 C 288.199219 125.363281 288.117188 124.507812 287.949219 123.660156 C 287.78125 122.8125 287.53125 121.992188 287.199219 121.191406 C 286.867188 120.394531 286.464844 119.636719 285.984375 118.917969 C 285.503906 118.199219 284.957031 117.53125 284.347656 116.921875 C 283.734375 116.3125 283.070312 115.765625 282.351562 115.285156 C 281.632812 114.804688 280.875 114.398438 280.074219 114.070312 C 279.277344 113.738281 278.453125 113.488281 277.605469 113.320312 C 276.757812 113.152344 275.902344 113.066406 275.039062 113.066406 L 186.324219 113.066406 C 185.457031 113.066406 184.601562 113.152344 183.753906 113.320312 C 182.90625 113.488281 182.085938 113.738281 181.285156 114.070312 C 180.488281 114.398438 179.730469 114.804688 179.011719 115.285156 C 178.292969 115.765625 177.625 116.3125 177.015625 116.921875 C 176.40625 117.53125 175.859375 118.199219 175.378906 118.917969 C 174.898438 119.636719 174.492188 120.394531 174.164062 121.191406 C 173.832031 121.992188 173.582031 122.8125 173.414062 123.660156 C 173.246094 124.507812 173.160156 125.363281 173.160156 126.230469 L 173.160156 442.128906 C 173.160156 442.996094 173.246094 443.851562 173.414062 444.699219 C 173.582031 445.546875 173.832031 446.371094 174.164062 447.167969 C 174.492188 447.964844 174.898438 448.726562 175.378906 449.445312 C 175.859375 450.160156 176.40625 450.828125 177.015625 451.4375 C 177.625 452.050781 178.292969 452.59375 179.011719 453.074219 C 179.730469 453.554688 180.488281 453.960938 181.285156 454.292969 C 182.085938 454.621094 182.90625 454.871094 183.753906 455.039062 C 184.601562 455.210938 185.457031 455.292969 186.324219 455.292969 Z M 186.324219 455.292969 " fill-opacity="1" fill-rule="nonzero"/><g fill="#003584" fill-opacity="1"><g transform="translate(676.04335, 430.699016)"><g><path d="M 240.40625 -242.859375 L 153.875 -242.859375 L 153.875 0 L 95.09375 0 L 95.09375 -242.859375 L 8.578125 -242.859375 L 8.578125 -292.234375 L 240.40625 -292.234375 Z M 240.40625 -242.859375 "/></g></g></g><g fill="#003584" fill-opacity="1"><g transform="translate(875.226683, 430.699016)"><g><path d="M 110.203125 -216.328125 C 143.941406 -216.328125 169.109375 -205.375 185.703125 -183.46875 C 202.304688 -161.5625 210.609375 -130.335938 210.609375 -89.796875 L 70.203125 -89.796875 C 70.742188 -75.640625 74.890625 -63.457031 82.640625 -53.25 C 90.398438 -43.050781 101.628906 -37.953125 116.328125 -37.953125 C 125.578125 -37.953125 133.125 -40.332031 138.96875 -45.09375 C 144.820312 -49.863281 149.109375 -57.28125 151.828125 -67.34375 L 207.75 -57.953125 C 200.675781 -37.273438 189.25 -21.628906 173.46875 -11.015625 C 157.6875 -0.410156 138.367188 4.890625 115.515625 4.890625 C 81.492188 4.890625 55.773438 -5.3125 38.359375 -25.71875 C 30.203125 -35.238281 23.945312 -47.207031 19.59375 -61.625 C 15.238281 -76.050781 13.0625 -90.335938 13.0625 -104.484375 C 13.0625 -123.804688 16.53125 -141.96875 23.46875 -158.96875 C 30.40625 -175.976562 41.148438 -189.789062 55.703125 -200.40625 C 70.265625 -211.019531 88.429688 -216.328125 110.203125 -216.328125 Z M 71.421875 -124.078125 L 155.09375 -124.078125 C 154.820312 -141.222656 150.535156 -153.738281 142.234375 -161.625 C 133.941406 -169.519531 124.21875 -173.46875 113.0625 -173.46875 C 100 -173.46875 89.789062 -168.769531 82.4375 -159.375 C 75.09375 -149.988281 71.421875 -138.222656 71.421875 -124.078125 Z M 71.421875 -124.078125 "/></g></g></g><g fill="#003584" fill-opacity="1"><g transform="translate(1090.328484, 430.699016)"><g><path d="M 111.828125 -216.328125 C 138.773438 -216.328125 158.773438 -212.851562 171.828125 -205.90625 C 184.890625 -198.96875 193.117188 -189.851562 196.515625 -178.5625 C 199.921875 -167.269531 201.488281 -152.375 201.21875 -133.875 L 200.8125 -72.25 C 200.539062 -52.925781 201.21875 -38.910156 202.84375 -30.203125 C 204.476562 -21.492188 207.882812 -11.425781 213.0625 0 L 157.953125 0 C 156.597656 -2.988281 154.148438 -10.742188 150.609375 -23.265625 C 140.546875 -13.472656 130.140625 -6.332031 119.390625 -1.84375 C 108.640625 2.644531 97.140625 4.890625 84.890625 4.890625 C 63.941406 4.890625 47.003906 -0.890625 34.078125 -12.453125 C 21.148438 -24.015625 14.6875 -39.046875 14.6875 -57.546875 C 14.6875 -73.054688 18.5625 -85.367188 26.3125 -94.484375 C 34.070312 -103.597656 43.53125 -110.195312 54.6875 -114.28125 C 65.84375 -118.363281 79.039062 -121.898438 94.28125 -124.890625 C 117.6875 -129.242188 134.96875 -133.597656 146.125 -137.953125 L 146.125 -146.9375 C 146.125 -156.1875 143.398438 -162.921875 137.953125 -167.140625 C 132.515625 -171.359375 122.582031 -173.46875 108.15625 -173.46875 C 97 -173.46875 88.695312 -171.222656 83.25 -166.734375 C 77.8125 -162.242188 73.734375 -155.644531 71.015625 -146.9375 L 20.40625 -156.328125 C 25.851562 -177.003906 35.648438 -192.171875 49.796875 -201.828125 C 63.941406 -211.492188 84.617188 -216.328125 111.828125 -216.328125 Z M 111.015625 -92.65625 L 101.625 -90.609375 C 80.945312 -86.253906 70.609375 -77.273438 70.609375 -63.671875 C 70.609375 -55.503906 73.53125 -48.628906 79.375 -43.046875 C 85.226562 -37.472656 92.644531 -34.6875 101.625 -34.6875 C 108.976562 -34.6875 116.328125 -36.59375 123.671875 -40.40625 C 131.015625 -44.21875 136.726562 -49.253906 140.8125 -55.515625 C 144.351562 -61.222656 146.125 -71.015625 146.125 -84.890625 L 146.125 -101.625 C 135.507812 -98.363281 123.804688 -95.375 111.015625 -92.65625 Z M 111.015625 -92.65625 "/></g></g></g><g fill="#003584" fill-opacity="1"><g transform="translate(1305.430262, 430.699016)"><g><path d="M 142.859375 -216.328125 C 170.335938 -216.328125 190.335938 -205.171875 202.859375 -182.859375 C 221.085938 -205.171875 242.582031 -216.328125 267.34375 -216.328125 C 290.738281 -216.328125 308.148438 -209.929688 319.578125 -197.140625 C 331.015625 -184.347656 336.734375 -165.164062 336.734375 -139.59375 L 336.734375 0 L 280.8125 0 L 280.8125 -126.53125 C 280.8125 -141.769531 278.835938 -153.398438 274.890625 -161.421875 C 270.941406 -169.453125 262.984375 -173.46875 251.015625 -173.46875 C 239.585938 -173.46875 230.40625 -169.519531 223.46875 -161.625 C 216.53125 -153.738281 212.242188 -143.535156 210.609375 -131.015625 C 209.515625 -121.222656 208.96875 -112.515625 208.96875 -104.890625 L 208.96875 0 L 153.0625 0 L 153.0625 -124.484375 C 153.0625 -141.628906 151.222656 -154.078125 147.546875 -161.828125 C 143.867188 -169.585938 136.046875 -173.46875 124.078125 -173.46875 C 115.367188 -173.46875 107.546875 -171.15625 100.609375 -166.53125 C 93.671875 -161.90625 88.84375 -155.507812 86.125 -147.34375 C 82.851562 -137.550781 81.21875 -123.8125 81.21875 -106.125 L 81.21875 0 L 25.3125 0 L 25.3125 -211.421875 L 77.140625 -211.421875 L 77.953125 -182.859375 C 86.660156 -193.460938 95.84375 -201.691406 105.5 -207.546875 C 115.164062 -213.398438 127.617188 -216.328125 142.859375 -216.328125 Z M 142.859375 -216.328125 "/></g></g></g><g fill="#003584" fill-opacity="1"><g transform="translate(1656.456536, 430.699016)"><g/></g></g><g fill="#003584" fill-opacity="1"><g transform="translate(1758.089071, 430.699016)"><g><path d="M 237.546875 -274.6875 C 247.617188 -266.800781 254.96875 -257.347656 259.59375 -246.328125 C 264.21875 -235.304688 266.53125 -223.941406 266.53125 -212.234375 C 266.53125 -191.015625 259.722656 -173.535156 246.109375 -159.796875 C 232.503906 -146.054688 211.828125 -137.144531 184.078125 -133.0625 C 194.691406 -128.164062 204.210938 -121.566406 212.640625 -113.265625 C 221.078125 -104.960938 230.0625 -93.46875 239.59375 -78.78125 L 290.203125 0 L 241.625 0 L 204.078125 -58.78125 C 191.015625 -79.1875 180.601562 -94.082031 172.84375 -103.46875 C 165.09375 -112.851562 157.132812 -119.519531 148.96875 -123.46875 C 140.8125 -127.414062 130.472656 -129.390625 117.953125 -129.390625 L 71.421875 -129.390625 L 71.421875 0 L 32.65625 0 L 32.65625 -292.234375 L 166.9375 -292.234375 C 184.082031 -292.234375 198.023438 -290.941406 208.765625 -288.359375 C 219.515625 -285.773438 229.109375 -281.21875 237.546875 -274.6875 Z M 209.390625 -176.328125 C 215.367188 -180.953125 219.71875 -186.460938 222.4375 -192.859375 C 225.164062 -199.253906 226.53125 -205.710938 226.53125 -212.234375 C 226.53125 -229.378906 220.40625 -241.625 208.15625 -248.96875 C 195.914062 -256.320312 181.628906 -260 165.296875 -260 L 71.421875 -260 L 71.421875 -163.671875 L 158.765625 -163.671875 C 172.378906 -163.671875 182.789062 -164.691406 190 -166.734375 C 197.207031 -168.773438 203.671875 -171.972656 209.390625 -176.328125 Z M 209.390625 -176.328125 "/></g></g></g><g fill="#003584" fill-opacity="1"><g transform="translate(2036.864312, 430.699016)"><g><path d="M 113.46875 -216.328125 C 129.519531 -216.328125 145.097656 -212.785156 160.203125 -205.703125 C 175.304688 -198.628906 187.820312 -186.863281 197.75 -170.40625 C 207.6875 -153.945312 212.65625 -132.382812 212.65625 -105.71875 C 212.65625 -82.039062 208.4375 -61.96875 200 -45.5 C 191.5625 -29.039062 179.859375 -16.59375 164.890625 -8.15625 C 149.929688 0.269531 132.789062 4.484375 113.46875 4.484375 C 85.164062 4.484375 62.035156 -4.359375 44.078125 -22.046875 C 24.210938 -41.359375 14.28125 -69.25 14.28125 -105.71875 C 14.28125 -129.382812 18.5 -149.515625 26.9375 -166.109375 C 35.375 -182.710938 47.070312 -195.234375 62.03125 -203.671875 C 77 -212.109375 94.144531 -216.328125 113.46875 -216.328125 Z M 51.015625 -105.71875 C 51.015625 -80.132812 56.660156 -60.265625 67.953125 -46.109375 C 79.242188 -31.960938 94.414062 -24.890625 113.46875 -24.890625 C 132.238281 -24.890625 147.335938 -31.894531 158.765625 -45.90625 C 170.203125 -59.925781 175.921875 -79.863281 175.921875 -105.71875 C 175.921875 -130.75 170.34375 -150.539062 159.1875 -165.09375 C 148.03125 -179.65625 132.65625 -186.9375 113.0625 -186.9375 C 94.550781 -186.9375 79.582031 -179.789062 68.15625 -165.5 C 56.726562 -151.21875 51.015625 -131.289062 51.015625 -105.71875 Z M 51.015625 -105.71875 "/></g></g></g><g fill="#003584" fill-opacity="1"><g transform="translate(2251.966135, 430.699016)"><g><path d="M 113.46875 -216.328125 C 129.519531 -216.328125 145.097656 -212.785156 160.203125 -205.703125 C 175.304688 -198.628906 187.820312 -186.863281 197.75 -170.40625 C 207.6875 -153.945312 212.65625 -132.382812 212.65625 -105.71875 C 212.65625 -82.039062 208.4375 -61.96875 200 -45.5 C 191.5625 -29.039062 179.859375 -16.59375 164.890625 -8.15625 C 149.929688 0.269531 132.789062 4.484375 113.46875 4.484375 C 85.164062 4.484375 62.035156 -4.359375 44.078125 -22.046875 C 24.210938 -41.359375 14.28125 -69.25 14.28125 -105.71875 C 14.28125 -129.382812 18.5 -149.515625 26.9375 -166.109375 C 35.375 -182.710938 47.070312 -195.234375 62.03125 -203.671875 C 77 -212.109375 94.144531 -216.328125 113.46875 -216.328125 Z M 51.015625 -105.71875 C 51.015625 -80.132812 56.660156 -60.265625 67.953125 -46.109375 C 79.242188 -31.960938 94.414062 -24.890625 113.46875 -24.890625 C 132.238281 -24.890625 147.335938 -31.894531 158.765625 -45.90625 C 170.203125 -59.925781 175.921875 -79.863281 175.921875 -105.71875 C 175.921875 -130.75 170.34375 -150.539062 159.1875 -165.09375 C 148.03125 -179.65625 132.65625 -186.9375 113.0625 -186.9375 C 94.550781 -186.9375 79.582031 -179.789062 68.15625 -165.5 C 56.726562 -151.21875 51.015625 -131.289062 51.015625 -105.71875 Z M 51.015625 -105.71875 "/></g></g></g><g fill="#003584" fill-opacity="1"><g transform="translate(2467.067959, 430.699016)"><g><path d="M 123.265625 -216.328125 C 138.503906 -216.328125 151.085938 -213.128906 161.015625 -206.734375 C 170.953125 -200.335938 178.097656 -191.15625 182.453125 -179.1875 C 190.878906 -191.15625 200.191406 -200.335938 210.390625 -206.734375 C 220.597656 -213.128906 233.050781 -216.328125 247.75 -216.328125 C 268.976562 -216.328125 285.304688 -210.269531 296.734375 -198.15625 C 308.160156 -186.050781 313.875 -168.84375 313.875 -146.53125 L 313.875 0 L 277.953125 0 L 277.953125 -135.921875 C 277.953125 -153.054688 274.957031 -165.566406 268.96875 -173.453125 C 262.988281 -181.347656 253.195312 -185.296875 239.59375 -185.296875 C 222.445312 -185.296875 209.585938 -179.515625 201.015625 -167.953125 C 192.441406 -156.390625 188.15625 -141.898438 188.15625 -124.484375 L 188.15625 0 L 152.25 0 L 152.25 -139.1875 C 152.25 -154.695312 149.1875 -166.257812 143.0625 -173.875 C 136.9375 -181.488281 127.476562 -185.296875 114.6875 -185.296875 C 104.351562 -185.296875 94.625 -182.367188 85.5 -176.515625 C 76.382812 -170.671875 70.0625 -162.035156 66.53125 -150.609375 C 63.8125 -142.441406 62.453125 -130.0625 62.453125 -113.46875 L 62.453125 0 L 26.53125 0 L 26.53125 -211.421875 L 58.78125 -211.421875 L 58.78125 -182.03125 C 66.394531 -193.738281 75.78125 -202.378906 86.9375 -207.953125 C 98.09375 -213.535156 110.203125 -216.328125 123.265625 -216.328125 Z M 123.265625 -216.328125 "/></g></g></g></svg>